<svg xmlns="http://www.w3.org/2000/svg" fill="#7289da" height="512" version="1" width="512"><rect fill="inherit" height="512" rx="15%" width="512" id="change1_1"/><path d="M346 392l-21-25c41-11 57-39 57-39-52 49-194 51-249 0 0 0 14 26 56 39l-23 25c-70-1-97-48-97-48 0-104 46-187 46-187 47-33 90-33 90-33l3 4c-58 16-83 42-83 42 68-46 208-42 263 0 1-1-33-28-86-42l5-4s43 0 90 33 46 83 46 187c0 0-27 47-97 48z" fill="#fff" id="change2_1"/><ellipse cx="196" cy="279" fill="inherit" rx="33" ry="35" id="change1_2"/><ellipse cx="312" cy="279" fill="inherit" rx="33" ry="35" id="change1_3"/></svg>