<svg xmlns="http://www.w3.org/2000/svg" fill="#e8e2ff" height="384" version="1" width="384"><g id="change1_1" fill="inherit"><path d="M192 384c105.871 0 192-86.129 192-192S297.871 0 192 0 0 86.129 0 192s86.129 192 192 192zm0-360c92.64 0 168 75.36 168 168s-75.36 168-168 168S24 284.64 24 192 99.36 24 192 24zm0 0"/><path d="M126.336 226.48l25.09-10.894-7.043 7.055a12.01 12.01 0 00-3.52 8.48v46.957c0 10.754 12.992 15.969 20.48 8.48l25.184-25.183 54.88 27.441c7.105 3.551 15.698-.656 17.167-8.593l31.313-172.176c1.648-9.262-7.473-16.75-16.192-13.328L70.238 174.352c-9.117 3.55-10.336 16.03-2.078 21.296l46.945 29.954c3.36 2.14 7.598 2.476 11.23.878zm136.098-101.55L237.84 260.207l-48.32-24.144a11.972 11.972 0 00-13.84 2.257l-10.817 10.817v-13.008l48.114-48.113c9.328-9.328-1.168-24.72-13.266-19.489l-77.07 33.442-21.664-13.824zm0 0"/></g></svg>