<svg xmlns="http://www.w3.org/2000/svg" height="424.3" version="1" viewBox="-1.1 0 513.9 424.3" width="513.9"><path d="M443.281 107.875a10.456 10.456 0 00-3.344 8.398c.036.563 3.536 57.18-21.695 120.266-33.707 84.293-100.164 138.727-197.305 161.746-1.042.219-90.906 18.832-169.792-18.687 33.726-1.414 80.43-10.914 113.292-47.809 2.743-3.074 3.399-7.832 1.708-11.59-1.688-3.754-5.438-6.512-9.551-6.512h-.07c-2.762 0-50.337-.359-73.133-46.304 9.218.394 20.238-.149 29.12-4.238 4.094-1.887 6.512-6.102 6.005-10.575-.504-4.476-3.82-8.082-8.227-9.007-2.559-.543-57.652-12.836-66.144-72.696 8.464 3.528 19.015 6.258 29.511 4.688a10.44 10.44 0 008.473-7.414 10.462 10.462 0 00-3.184-10.809c-2.382-2.07-54.328-48.273-30.539-107.973 28.157 29.332 108.457 102.368 205.832 96.786a10.45 10.45 0 009.532-12.977 92.197 92.197 0 01-2.774-22.418c0-49.547 39.66-89.855 88.41-89.855 23.844 0 46.203 9.515 62.969 26.796a10.489 10.489 0 007.324 3.176 122.24 122.24 0 0043.531-7.633c-5.359 6.274-12.855 13.621-23.332 21.852a10.448 10.448 0 00-3.277 12.023c1.684 4.301 6.055 7.024 10.567 6.61 2.113-.168 12.351-1.074 24.351-3.508-6.879 7.312-16.047 16.434-28.258 27.664zm64.133-58.355a10.451 10.451 0 00-12.176.324c-3.61 2.734-9.472 5.09-16.136 7.015 18.246-21.3 18.62-35.539 18.41-38.89a10.471 10.471 0 00-5.989-8.793 10.465 10.465 0 00-10.586 1.008c-21.89 15.906-43.687 19.37-56.789 19.757-20.34-19.34-46.707-29.945-74.742-29.945-60.27 0-109.304 49.688-109.304 110.754 0 4.941.324 9.875.968 14.77C138.176 123.77 54.664 25.277 53.8 24.242c-2.183-2.617-5.5-4.039-8.925-3.715a10.456 10.456 0 00-8.148 5.192C7.723 76.039 25.44 120.44 43.23 147.047c-1.835-1.094-3.34-2.098-4.37-2.86a10.468 10.468 0 00-10.852-.996 10.454 10.454 0 00-5.84 9.211c-.785 48.254 21.766 76.489 43.676 92.489a10.442 10.442 0 00-6.266 3.277 10.445 10.445 0 00-2.312 10.121c15.195 49.734 52.043 67.356 76.375 73.59-49.22 37.137-120.559 25.016-121.348 24.867-4.73-.832-9.465 1.66-11.41 6.082a10.446 10.446 0 003.226 12.508c52.465 40.043 115.211 48.914 160.532 48.914 34.27 0 58.57-5.074 60.91-5.582 228.613-54.18 235.86-263.063 235.39-298.66 42.891-39.93 49.633-55.254 50.688-59.067a10.464 10.464 0 00-4.215-11.421" fill="#e8e2ff" id="change1_1"/></svg>